<svg xmlns="http://www.w3.org/2000/svg" viewBox="0 0 800 800">
  <defs>
    <radialGradient id="fade" cx="50%" cy="50%" r="50%">
      <stop offset="0%" stop-color="#ffecb3"/>
      <stop offset="40%" stop-color="#ffb74d"/>
      <stop offset="65%" stop-color="#f48fb1"/>
      <stop offset="85%" stop-color="#ce93d8"/>
      <stop offset="100%" stop-color="transparent"/>
    </radialGradient>
  </defs>

  <!-- Soft glow -->
  <circle cx="400" cy="400" r="360" fill="url(#fade)" opacity="0.9"/>

  <!-- Mandala petals -->
  <g fill="none" stroke="#f06292" stroke-width="4" opacity="0.75">
    <path d="M400 80 C480 180 620 240 720 400 C620 560 480 620 400 720 C320 620 180 560 80 400 C180 240 320 180 400 80 Z"/>
    <path d="M400 140 C500 240 560 300 660 400 C560 500 500 560 400 660 C300 560 240 500 140 400 C240 300 300 240 400 140 Z"/>
  </g>

  <!-- Inner ring -->
  <circle cx="400" cy="400" r="160" fill="none" stroke="#ff9800" stroke-width="6"/>
</svg>

